<svg width="720" height="520" viewBox="0 0 720 520" fill="none" xmlns="http://www.w3.org/2000/svg">
  <rect width="720" height="520" rx="44" fill="url(#bg)"/>
  <circle cx="572" cy="100" r="76" fill="#BFF5EA" opacity=".72"/>
  <circle cx="145" cy="425" r="92" fill="#BAE6FD" opacity=".62"/>
  <rect x="104" y="94" width="338" height="332" rx="34" fill="white" stroke="#CFEAF6" stroke-width="3"/>
  <rect x="144" y="142" width="170" height="18" rx="9" fill="#0F766E" opacity=".22"/>
  <rect x="144" y="184" width="238" height="16" rx="8" fill="#D8ECF7"/>
  <rect x="144" y="218" width="198" height="16" rx="8" fill="#D8ECF7"/>
  <rect x="144" y="274" width="238" height="76" rx="22" fill="#ECFEFF" stroke="#B7DDF2"/>
  <path d="M184 312h27l17-31 24 54 18-23h42" stroke="#14B8A6" stroke-width="10" stroke-linecap="round" stroke-linejoin="round"/>
  <rect x="470" y="156" width="134" height="202" rx="36" fill="white" stroke="#CFEAF6" stroke-width="3"/>
  <rect x="503" y="192" width="68" height="12" rx="6" fill="#D8ECF7"/>
  <circle cx="537" cy="263" r="42" fill="#E6FAF6"/>
  <path d="M516 263c10-22 31-22 42 0-11 22-32 22-42 0z" fill="#14B8A6"/>
  <path d="M528 263h18m-9-9v18" stroke="white" stroke-width="6" stroke-linecap="round"/>
  <rect x="498" y="324" width="78" height="12" rx="6" fill="#D8ECF7"/>
  <defs>
    <linearGradient id="bg" x1="0" y1="0" x2="720" y2="520" gradientUnits="userSpaceOnUse">
      <stop stop-color="#E0F7FF"/>
      <stop offset="1" stop-color="#D7FBF1"/>
    </linearGradient>
  </defs>
</svg>
